 0
SECTION
 2
ENTITIES
  0
LINE
 8
GROUP0
10
8.30874924417913e-011
20
0.0
30
2.70716782324598e-012
11
100.000000000083
21
5.32184074586439e-011
31
0.0
  0
LINE
 8
GROUP0
10
100.000000000083
20
5.32184074586439e-011
30
0.0
11
100.000000000066
21
31.0000000000462
31
3.70818542538842e-011
  0
LINE
 8
GROUP0
10
96.0000000000657
20
31.0000000000439
30
3.71495334494654e-011
11
100.000000000066
21
31.0000000000462
31
3.70818542538842e-011
  0
LINE
 8
GROUP0
10
96.0000000000657
20
31.0000000000439
30
3.71495334494654e-011
11
96.0000000000492
21
62.000000000044
31
4.43630077118229e-011
  0
LINE
 8
GROUP0
10
96.0000000000492
20
62.000000000044
30
4.43630077118229e-011
11
100.000000000049
21
62.0000000000461
31
4.43630077118229e-011
  0
LINE
 8
GROUP0
10
100.000000000049
20
62.0000000000461
30
4.43630077118229e-011
11
100.000000000033
21
93.0000000000461
31
5.15757769825598e-011
  0
LINE
 8
GROUP0
10
96.0000000000328
20
93.000000000044
30
5.15757769825598e-011
11
100.000000000033
21
93.0000000000461
31
5.15757769825598e-011
  0
LINE
 8
GROUP0
10
96.0000000000328
20
93.000000000044
30
5.15757769825598e-011
11
96.0000000000164
21
124.000000000044
31
5.87892512449173e-011
  0
LINE
 8
GROUP0
10
96.0000000000164
20
124.000000000044
30
5.87892512449173e-011
11
100.000000000016
21
124.000000000046
31
5.87892512449173e-011
  0
LINE
 8
GROUP0
10
100.000000000016
20
124.000000000046
30
5.87892512449173e-011
11
100.0
21
155.000000000046
31
6.60020205156542e-011
  0
LINE
 8
GROUP0
10
96.0
20
155.000000000044
30
6.60020205156542e-011
11
100.0
21
155.000000000046
31
6.60020205156542e-011
  0
LINE
 8
GROUP0
10
96.0
20
155.000000000044
30
6.60020205156542e-011
11
95.9999999999867
21
182.000000000141
31
4.24158208556236e-011
  0
LINE
 8
GROUP0
10
95.9999999999867
20
182.000000000141
30
4.24158208556236e-011
11
77.5999999999867
21
182.000000000132
31
4.26865376379482e-011
  0
LINE
 8
GROUP0
10
77.5999999999845
20
186.000000000132
30
4.3617126577189e-011
11
77.5999999999867
21
182.000000000132
31
4.26865376379482e-011
  0
LINE
 8
GROUP0
10
77.5999999999845
20
186.000000000132
30
4.3617126577189e-011
11
59.1999999999845
21
186.000000000122
31
4.38652836276532e-011
  0
LINE
 8
GROUP0
10
59.1999999999845
20
186.000000000122
30
4.38652836276532e-011
11
59.1999999999867
21
182.000000000122
31
4.29346946884124e-011
  0
LINE
 8
GROUP0
10
59.1999999999867
20
182.000000000122
30
4.29346946884124e-011
11
40.7999999999866
21
182.000000000112
31
4.3205411470737e-011
  0
LINE
 8
GROUP0
10
40.7999999999845
20
186.000000000112
30
4.41360004099778e-011
11
40.7999999999866
21
182.000000000112
31
4.3205411470737e-011
  0
LINE
 8
GROUP0
10
40.7999999999845
20
186.000000000112
30
4.41360004099778e-011
11
22.3999999999845
21
186.000000000102
31
4.44292769241628e-011
  0
LINE
 8
GROUP0
10
22.3999999999845
20
186.000000000102
30
4.44292769241628e-011
11
22.3999999999866
21
182.000000000102
31
4.3498687984922e-011
  0
LINE
 8
GROUP0
10
22.3999999999866
20
182.000000000102
30
4.3498687984922e-011
11
3.99999999998666
21
182.000000000093
31
4.37694047672466e-011
  0
LINE
 8
GROUP0
10
3.99999999998666
20
182.000000000093
30
4.37694047672466e-011
11
3.99999999999999
21
154.999999999995
31
6.73330446954168e-011
  0
LINE
 8
GROUP0
10
3.99999999999999
20
154.999999999995
30
6.73330446954168e-011
11
0.0
21
154.999999999993
31
6.73330446954168e-011
  0
LINE
 8
GROUP0
10
0.0
20
154.999999999993
30
6.73330446954168e-011
11
1.64009250624986e-011
21
123.999999999993
31
6.01202754246799e-011
  0
LINE
 8
GROUP0
10
4.00000000001639
20
123.999999999995
30
6.01202754246799e-011
11
1.64009250624986e-011
21
123.999999999993
31
6.01202754246799e-011
  0
LINE
 8
GROUP0
10
4.00000000001639
20
123.999999999995
30
6.01202754246799e-011
11
4.00000000003282
21
92.9999999999952
31
5.29068011623224e-011
  0
LINE
 8
GROUP0
10
4.00000000003282
20
92.9999999999952
30
5.29068011623224e-011
11
3.28018501249971e-011
21
92.9999999999931
31
5.29068011623224e-011
  0
LINE
 8
GROUP0
10
3.28018501249971e-011
20
92.9999999999931
30
5.29068011623224e-011
11
4.92253349193561e-011
21
61.9999999999931
31
4.56940318915855e-011
  0
LINE
 8
GROUP0
10
4.00000000004922
20
61.9999999999952
30
4.56940318915855e-011
11
4.92253349193561e-011
21
61.9999999999931
31
4.56940318915855e-011
  0
LINE
 8
GROUP0
10
4.00000000004922
20
61.9999999999952
30
4.56940318915855e-011
11
4.00000000006566
21
30.9999999999952
31
3.8480557629228e-011
  0
LINE
 8
GROUP0
10
4.00000000006566
20
30.9999999999952
30
3.8480557629228e-011
11
6.56713794455754e-011
21
30.999999999993
31
3.85482368248091e-011
  0
LINE
 8
GROUP0
10
6.56713794455754e-011
20
30.999999999993
30
3.85482368248091e-011
11
8.30874924417913e-011
21
0.0
31
2.70716782324598e-012
 0
ENDSEC
 0
EOF
