 0
SECTION
 2
ENTITIES
  0
LINE
 8
GROUP0
10
0.0
20
96.000000000001
30
9.81348335926668e-011
11
35.5999999999998
21
96.0000000000015
31
7.44471151392645e-012
  0
LINE
 8
GROUP0
10
3.60955709766131e-013
20
77.600000000001
30
9.82476322519688e-011
11
0.0
21
96.000000000001
31
9.81348335926668e-011
  0
LINE
 8
GROUP0
10
4.00000000000017
20
77.6000000000012
30
9.77738778829007e-011
11
3.60955709766131e-013
21
77.600000000001
31
9.82476322519688e-011
  0
LINE
 8
GROUP0
10
4.00000000000053
20
59.2000000000012
30
9.77513181510403e-011
11
4.00000000000017
21
77.6000000000012
31
9.77738778829007e-011
  0
LINE
 8
GROUP0
10
4.00000000000053
20
59.2000000000012
30
9.77513181510403e-011
11
5.41433564649196e-013
21
59.2000000000012
31
9.77513181510403e-011
  0
LINE
 8
GROUP0
10
7.21911419532262e-013
20
40.8000000000011
30
9.77513181510403e-011
11
5.41433564649196e-013
21
59.2000000000012
31
9.77513181510403e-011
  0
LINE
 8
GROUP0
10
4.0000000000009
20
40.8000000000012
30
9.77513181510403e-011
11
7.21911419532262e-013
21
40.8000000000011
31
9.77513181510403e-011
  0
LINE
 8
GROUP0
10
4.00000000000108
20
22.4000000000012
30
9.77513181510403e-011
11
4.0000000000009
21
40.8000000000012
31
9.77513181510403e-011
  0
LINE
 8
GROUP0
10
4.00000000000108
20
22.4000000000012
30
9.77513181510403e-011
11
1.08286712929839e-012
21
22.4000000000015
31
9.82250725201084e-011
  0
LINE
 8
GROUP0
10
0.0
20
4.0000000000073
30
9.81348335926668e-011
11
1.08286712929839e-012
21
22.4000000000015
31
9.82250725201084e-011
  0
LINE
 8
GROUP0
10
35.6000000000313
20
4.00000000000017
30
4.2863490534728e-013
11
0.0
21
4.0000000000073
31
9.81348335926668e-011
  0
LINE
 8
GROUP0
10
35.6000000000313
20
4.00000000000017
30
4.2863490534728e-013
11
35.6000000000313
21
1.80477854883065e-013
31
4.2863490534728e-013
  0
LINE
 8
GROUP0
10
71.2000000000311
20
1.12798659301916e-013
30
4.06075173486897e-013
11
35.6000000000313
21
1.80477854883065e-013
31
4.2863490534728e-013
  0
LINE
 8
GROUP0
10
71.2000000000311
20
4.00000000000013
30
4.06075173486897e-013
11
71.2000000000311
21
1.12798659301916e-013
31
4.06075173486897e-013
  0
LINE
 8
GROUP0
10
106.800000000031
20
4.00000000000006
30
4.06075173486897e-013
11
71.2000000000311
21
4.00000000000013
31
4.06075173486897e-013
  0
LINE
 8
GROUP0
10
106.800000000031
20
4.00000000000006
30
4.06075173486897e-013
11
106.800000000031
21
4.51194637207664e-014
31
4.06075173486897e-013
  0
LINE
 8
GROUP0
10
142.400000000031
20
0.0
30
4.2863490534728e-013
11
106.800000000031
21
4.51194637207664e-014
31
4.06075173486897e-013
  0
LINE
 8
GROUP0
10
142.400000000031
20
3.99999999999999
30
4.2863490534728e-013
11
142.400000000031
21
0.0
31
4.2863490534728e-013
  0
LINE
 8
GROUP0
10
178.000000000001
20
4.00000000000692
30
6.94839741299802e-012
11
142.400000000031
21
3.99999999999999
31
4.2863490534728e-013
  0
LINE
 8
GROUP0
10
178.000000000001
20
22.4000000000008
30
9.72775637819723e-011
11
178.000000000001
21
4.00000000000692
31
6.94839741299802e-012
  0
LINE
 8
GROUP0
10
174.000000000001
20
22.4000000000009
30
9.77513181510403e-011
11
178.000000000001
21
22.4000000000008
31
9.72775637819723e-011
  0
LINE
 8
GROUP0
10
174.000000000001
20
40.8000000000009
30
9.77513181510403e-011
11
174.000000000001
21
22.4000000000009
31
9.77513181510403e-011
  0
LINE
 8
GROUP0
10
174.000000000001
20
40.8000000000009
30
9.77513181510403e-011
11
178.000000000001
21
40.8000000000009
31
9.77513181510403e-011
  0
LINE
 8
GROUP0
10
178.0
20
59.2000000000009
30
9.77513181510403e-011
11
178.000000000001
21
40.8000000000009
31
9.77513181510403e-011
  0
LINE
 8
GROUP0
10
174.0
20
59.2000000000009
30
9.77513181510403e-011
11
178.0
21
59.2000000000009
31
9.77513181510403e-011
  0
LINE
 8
GROUP0
10
174.0
20
77.6000000000009
30
9.77738778829007e-011
11
174.0
21
59.2000000000009
31
9.77513181510403e-011
  0
LINE
 8
GROUP0
10
174.0
20
77.6000000000009
30
9.77738778829007e-011
11
178.0
21
77.6000000000008
31
9.73001235138327e-011
  0
LINE
 8
GROUP0
10
178.000000000001
20
96.0000000000011
30
9.71873248545307e-011
11
178.0
21
77.6000000000008
31
9.73001235138327e-011
  0
LINE
 8
GROUP0
10
142.4
20
96.0000000000013
30
7.44471151392645e-012
11
178.000000000001
21
96.0000000000011
31
9.71873248545307e-011
  0
LINE
 8
GROUP0
10
142.4
20
96.0000000000013
30
7.44471151392645e-012
11
142.4
21
100.000000000001
31
7.44471151392645e-012
  0
LINE
 8
GROUP0
10
106.8
20
100.000000000001
30
7.42215178206607e-012
11
142.4
21
100.000000000001
31
7.44471151392645e-012
  0
LINE
 8
GROUP0
10
106.8
20
96.0000000000014
30
7.42215178206607e-012
11
106.8
21
100.000000000001
31
7.42215178206607e-012
  0
LINE
 8
GROUP0
10
71.2
20
96.0000000000014
30
7.42215178206607e-012
11
106.8
21
96.0000000000014
31
7.42215178206607e-012
  0
LINE
 8
GROUP0
10
71.2
20
96.0000000000014
30
7.42215178206607e-012
11
71.2
21
100.000000000001
31
7.42215178206607e-012
  0
LINE
 8
GROUP0
10
35.5999999999998
20
100.000000000001
30
7.44471151392645e-012
11
71.2
21
100.000000000001
31
7.42215178206607e-012
  0
LINE
 8
GROUP0
10
35.5999999999998
20
96.0000000000015
30
7.44471151392645e-012
11
35.5999999999998
21
100.000000000001
31
7.44471151392645e-012
  0
LINE
 8
GROUP0
10
21.5355339059345
20
46.4644823281898
30
1.80477854883065e-013
11
20.5000000000018
21
45.6698892152002
31
9.02389274415327e-014
  0
LINE
 8
GROUP0
10
20.5000000000018
20
45.6698892152002
30
9.02389274415327e-014
11
19.2940952255142
21
45.1703871026773
31
1.80477854883065e-013
  0
LINE
 8
GROUP0
10
19.2940952255142
20
45.1703871026773
30
1.80477854883065e-013
11
18.0000000000017
21
45.0000162341226
31
9.02389274415327e-014
  0
LINE
 8
GROUP0
10
18.0000000000017
20
45.0000162341226
30
9.02389274415327e-014
11
16.7059047744892
21
45.1703871026773
31
2.70716782324598e-013
  0
LINE
 8
GROUP0
10
16.7059047744892
20
45.1703871026773
30
2.70716782324598e-013
11
15.5000000000019
21
45.6698892152001
31
9.02389274415327e-014
  0
LINE
 8
GROUP0
10
15.5000000000019
20
45.6698892152001
30
9.02389274415327e-014
11
14.4644660940689
21
46.4644823281897
31
1.80477854883065e-013
  0
LINE
 8
GROUP0
10
9.85686860131714
20
50.0000162341228
30
2.70716782324598e-013
11
14.4644660940689
21
46.4644823281897
31
1.80477854883065e-013
  0
LINE
 8
GROUP0
10
14.4644660940689
20
53.5355501400552
30
1.80477854883065e-013
11
9.85686860131714
21
50.0000162341228
31
2.70716782324598e-013
  0
LINE
 8
GROUP0
10
14.4644660940689
20
53.5355501400552
30
1.80477854883065e-013
11
15.5000000000019
21
54.3301432530449
31
9.02389274415327e-014
  0
LINE
 8
GROUP0
10
15.5000000000019
20
54.3301432530449
30
9.02389274415327e-014
11
16.7059047744892
21
54.8296453655679
31
2.70716782324598e-013
  0
LINE
 8
GROUP0
10
16.7059047744892
20
54.8296453655679
30
2.70716782324598e-013
11
18.0000000000017
21
55.0000162341225
31
1.80477854883065e-013
  0
LINE
 8
GROUP0
10
18.0000000000017
20
55.0000162341225
30
1.80477854883065e-013
11
19.2940952255145
21
54.8296453655678
31
2.70716782324598e-013
  0
LINE
 8
GROUP0
10
19.2940952255145
20
54.8296453655678
30
2.70716782324598e-013
11
20.5000000000018
21
54.3301432530449
31
9.02389274415327e-014
  0
LINE
 8
GROUP0
10
20.5000000000018
20
54.3301432530449
30
9.02389274415327e-014
11
21.5355339059345
21
53.5355501400553
31
1.80477854883065e-013
  0
LINE
 8
GROUP0
10
21.5355339059345
20
53.5355501400553
30
1.80477854883065e-013
11
22.330127018924
21
52.5000162341225
31
1.80477854883065e-013
  0
LINE
 8
GROUP0
10
22.330127018924
20
52.5000162341225
30
1.80477854883065e-013
11
22.8296291314473
21
51.2941114596352
31
9.02389274415327e-014
  0
LINE
 8
GROUP0
10
22.8296291314473
20
51.2941114596352
30
9.02389274415327e-014
11
23.0000000000016
21
50.0000162341227
31
1.80477854883065e-013
  0
LINE
 8
GROUP0
10
23.0000000000016
20
50.0000162341227
30
1.80477854883065e-013
11
22.8296291314473
21
48.70592100861
31
0.0
  0
LINE
 8
GROUP0
10
22.8296291314473
20
48.70592100861
30
0.0
11
22.330127018924
21
47.5000162341226
31
2.70716782324598e-013
  0
LINE
 8
GROUP0
10
22.330127018924
20
47.5000162341226
30
2.70716782324598e-013
11
21.5355339059345
21
46.4644823281898
31
1.80477854883065e-013
  0
LINE
 8
GROUP0
10
157.500000000002
20
45.6698567469265
30
4.06075173486897e-013
11
156.464466094069
21
46.4644498599161
31
4.9631410092843e-013
  0
LINE
 8
GROUP0
10
156.464466094069
20
46.4644498599161
30
4.9631410092843e-013
11
155.66987298108
21
47.4999837658489
31
5.41433564649196e-013
  0
LINE
 8
GROUP0
10
155.66987298108
20
47.4999837658489
30
5.41433564649196e-013
11
155.170370868556
21
48.7058885403362
31
4.9631410092843e-013
  0
LINE
 8
GROUP0
10
155.170370868556
20
48.7058885403362
30
4.9631410092843e-013
11
155.000000000002
21
49.9999837658487
31
6.31672492090729e-013
  0
LINE
 8
GROUP0
10
155.000000000002
20
49.9999837658487
30
6.31672492090729e-013
11
155.170370868556
21
51.2940789913613
31
4.9631410092843e-013
  0
LINE
 8
GROUP0
10
155.170370868556
20
51.2940789913613
30
4.9631410092843e-013
11
155.66987298108
21
52.4999837658487
31
8.12150346973794e-013
  0
LINE
 8
GROUP0
10
155.66987298108
20
52.4999837658487
30
8.12150346973794e-013
11
156.464466094069
21
53.5355176717816
31
7.67030883253028e-013
  0
LINE
 8
GROUP0
10
156.464466094069
20
53.5355176717816
30
7.67030883253028e-013
11
157.500000000002
21
54.3301107847712
31
6.99351687671879e-013
  0
LINE
 8
GROUP0
10
157.500000000002
20
54.3301107847712
30
6.99351687671879e-013
11
158.705904774489
21
54.829612897294
31
8.12150346973794e-013
  0
LINE
 8
GROUP0
10
158.705904774489
20
54.829612897294
30
8.12150346973794e-013
11
160.000000000002
21
54.9999837658487
31
7.44471151392645e-013
  0
LINE
 8
GROUP0
10
160.000000000002
20
54.9999837658487
30
7.44471151392645e-013
11
161.294095225514
21
54.829612897294
31
9.2494900627571e-013
  0
LINE
 8
GROUP0
10
161.294095225514
20
54.829612897294
30
9.2494900627571e-013
11
162.500000000002
21
54.3301107847713
31
7.21911419532262e-013
  0
LINE
 8
GROUP0
10
162.500000000002
20
54.3301107847713
30
7.21911419532262e-013
11
163.535533905934
21
53.5355176717816
31
8.12150346973794e-013
  0
LINE
 8
GROUP0
10
168.143131398686
20
49.9999837658486
30
8.12150346973794e-013
11
163.535533905934
21
53.5355176717816
31
8.12150346973794e-013
  0
LINE
 8
GROUP0
10
163.535533905934
20
46.4644498599162
30
5.41433564649196e-013
11
168.143131398686
21
49.9999837658486
31
8.12150346973794e-013
  0
LINE
 8
GROUP0
10
163.535533905934
20
46.4644498599162
30
5.41433564649196e-013
11
162.500000000002
21
45.6698567469265
31
4.2863490534728e-013
  0
LINE
 8
GROUP0
10
162.500000000002
20
45.6698567469265
30
4.2863490534728e-013
11
161.294095225514
21
45.1703546344034
31
5.86553028369963e-013
  0
LINE
 8
GROUP0
10
161.294095225514
20
45.1703546344034
30
5.86553028369963e-013
11
160.000000000002
21
44.9999837658488
31
4.9631410092843e-013
  0
LINE
 8
GROUP0
10
160.000000000002
20
44.9999837658488
30
4.9631410092843e-013
11
158.705904774489
21
45.1703546344036
31
5.6399329650958e-013
  0
LINE
 8
GROUP0
10
158.705904774489
20
45.1703546344036
30
5.6399329650958e-013
11
157.500000000002
21
45.6698567469265
31
4.06075173486897e-013
 0
ENDSEC
 0
EOF
