 0
SECTION
 2
ENTITIES
  0
LINE
 8
GROUP0
10
142.4
20
186.0
30
3.74456299301329e-011
11
142.4
21
182.0
31
3.67639030329769e-011
  0
LINE
 8
GROUP0
10
178.0
20
186.0
30
3.75097841676109e-011
11
178.0
21
155.0
31
3.12579184758022e-011
  0
LINE
 8
GROUP0
10
142.4
20
186.0
30
3.74456299301329e-011
11
178.0
21
186.0
31
3.75097841676109e-011
  0
LINE
 8
GROUP0
10
106.8
20
182.0
30
3.6699748795499e-011
11
142.4
21
182.0
31
3.67639030329769e-011
  0
LINE
 8
GROUP0
10
106.8
20
186.0
30
3.73807707010343e-011
11
106.8
21
182.0
31
3.6699748795499e-011
  0
LINE
 8
GROUP0
10
35.6
20
182.0
30
3.6571440320543e-011
11
71.2
21
182.0
31
3.6635594558021e-011
  0
LINE
 8
GROUP0
10
71.2
20
186.0
30
3.73166164635563e-011
11
71.2
21
182.0
31
3.6635594558021e-011
  0
LINE
 8
GROUP0
10
1.40998324127395e-015
20
155.0
30
3.19269555237867e-011
11
0.0
21
186.0
31
3.71883079886004e-011
  0
LINE
 8
GROUP0
10
4.0
20
124.0
30
2.66663080505936e-011
11
4.0
21
155.0
31
3.19269555237867e-011
  0
LINE
 8
GROUP0
10
0.0
20
124.0
30
2.66663080505936e-011
11
4.0
21
124.0
31
2.66663080505936e-011
  0
LINE
 8
GROUP0
10
0.0
20
93.0
30
2.14056605774005e-011
11
4.0
21
93.0
31
2.14056605774005e-011
  0
LINE
 8
GROUP0
10
0.0
20
93.0
30
2.14056605774005e-011
11
0.0
21
124.0
31
2.66663080505936e-011
  0
LINE
 8
GROUP0
10
71.2
20
186.0
30
3.73166164635563e-011
11
106.8
21
186.0
31
3.73807707010343e-011
  0
LINE
 8
GROUP0
10
0.0
20
186.0
30
3.71883079886004e-011
11
35.6
21
186.0
31
3.72524622260784e-011
  0
LINE
 8
GROUP0
10
35.6
20
186.0
30
3.72524622260784e-011
11
35.6
21
182.0
31
3.6571440320543e-011
  0
LINE
 8
GROUP0
10
1.40998324127395e-015
20
155.0
30
3.19269555237867e-011
11
4.0
21
155.0
31
3.19269555237867e-011
  0
LINE
 8
GROUP0
10
4.0
20
0.0
30
5.57789370247974e-012
11
4.0
21
31.0
31
1.08385411756728e-011
  0
LINE
 8
GROUP0
10
0.0
20
31.0
30
1.08836606393936e-011
11
4.0
21
31.0
31
1.08385411756728e-011
  0
LINE
 8
GROUP0
10
4.0
20
62.0
30
1.61450131042074e-011
11
4.0
21
93.0
31
2.14056605774005e-011
  0
LINE
 8
GROUP0
10
24.0
20
5.63993296503346e-015
30
5.94448934521097e-012
11
4.0
21
0.0
31
5.57789370247974e-012
  0
LINE
 8
GROUP0
10
59.0000000000001
20
25.999999999958
30
1.28978216995534e-011
11
39.0000000000001
21
25.999999999958
31
1.28978216995534e-011
  0
LINE
 8
GROUP0
10
74.0
20
5.07593966853694e-014
30
8.47117931357388e-012
11
59.0000000000001
21
25.999999999958
31
1.28978216995534e-011
  0
LINE
 8
GROUP0
10
1.40998324127395e-015
20
62.0
30
1.61450131042074e-011
11
4.0
21
62.0
31
1.61450131042074e-011
  0
LINE
 8
GROUP0
10
39.0000000000001
20
25.999999999958
30
1.28978216995534e-011
11
24.0
21
5.63993296503346e-015
31
5.94448934521097e-012
  0
LINE
 8
GROUP0
10
104.0
20
5.21693799280857e-014
30
0.0
11
74.0
21
5.07593966853694e-014
31
8.47117931357388e-012
  0
LINE
 8
GROUP0
10
0.0
20
31.0
30
1.08836606393936e-011
11
1.40998324127395e-015
21
62.0
31
1.61450131042074e-011
  0
LINE
 8
GROUP0
10
178.0
20
62.0
30
1.25030263919967e-011
11
178.0
21
31.0000000000001
31
6.25186569180869e-012
  0
LINE
 8
GROUP0
10
178.0
20
62.0
30
1.25030263919967e-011
11
174.0
21
62.0
31
1.25030263919967e-011
  0
LINE
 8
GROUP0
10
174.0
20
31.0000000000001
30
6.29698515552946e-012
11
174.0
21
5.7809312893174e-014
31
4.51194637207664e-014
  0
LINE
 8
GROUP0
10
174.0
20
93.0
30
1.87548920838054e-011
11
174.0
21
62.0
31
1.25030263919967e-011
  0
LINE
 8
GROUP0
10
178.0
20
93.0
30
1.87548920838054e-011
11
174.0
21
93.0
31
1.87548920838054e-011
  0
LINE
 8
GROUP0
10
154.0
20
5.21693799280857e-014
30
0.0
11
139.0
21
25.999999999958
31
8.41971492526739e-012
  0
LINE
 8
GROUP0
10
178.0
20
124.0
30
2.50060527839935e-011
11
178.0
21
93.0
31
1.87548920838054e-011
  0
LINE
 8
GROUP0
10
119.0
20
25.999999999958
30
5.68998737016102e-012
11
104.0
21
5.21693799280857e-014
31
0.0
  0
LINE
 8
GROUP0
10
139.0
20
25.999999999958
30
8.41971492526739e-012
11
119.0
21
25.999999999958
31
5.68998737016102e-012
  0
LINE
 8
GROUP0
10
178.0
20
31.0000000000001
30
6.25186569180869e-012
11
174.0
21
31.0000000000001
31
6.29698515552946e-012
  0
LINE
 8
GROUP0
10
174.0
20
5.7809312893174e-014
30
4.51194637207664e-014
11
154.0
21
5.21693799280857e-014
31
0.0
  0
LINE
 8
GROUP0
10
174.0
20
155.0
30
3.12579184758022e-011
11
174.0
21
124.0
31
2.50060527839935e-011
  0
LINE
 8
GROUP0
10
178.0
20
155.0
30
3.12579184758022e-011
11
174.0
21
155.0
31
3.12579184758022e-011
  0
LINE
 8
GROUP0
10
178.0
20
124.0
30
2.50060527839935e-011
11
174.0
21
124.0
31
2.50060527839935e-011
 0
ENDSEC
 0
EOF
